<svg width="19" height="20" viewBox="0 0 19 20" fill="none" xmlns="http://www.w3.org/2000/svg">
<path d="M4.53178 12.1377L3.1651 18.0557C3.12278 18.2349 3.13549 18.4227 3.20156 18.5945C3.26763 18.7664 3.38399 18.9143 3.53545 19.0191C3.68691 19.1238 3.86643 19.1804 4.05056 19.1814C4.23468 19.1825 4.41486 19.1281 4.56755 19.0252L9.56189 15.6956L14.5562 19.0252C14.7125 19.1289 14.8967 19.1823 15.0842 19.1782C15.2717 19.1741 15.4535 19.1127 15.605 19.0022C15.7565 18.8917 15.8706 18.7375 15.9319 18.5602C15.9931 18.383 15.9986 18.1912 15.9477 18.0107L14.2701 12.1404L18.4306 8.39628C18.5639 8.27629 18.659 8.11988 18.7043 7.94638C18.7497 7.77289 18.7431 7.58992 18.6855 7.4201C18.6279 7.25029 18.5219 7.10107 18.3804 6.99091C18.2389 6.88075 18.0682 6.81448 17.8895 6.80029L12.6603 6.38386L10.3975 1.37485C10.3253 1.21356 10.208 1.0766 10.0598 0.980493C9.9115 0.88439 9.73859 0.833252 9.56189 0.833252C9.3852 0.833252 9.21228 0.88439 9.06401 0.980493C8.91574 1.0766 8.79844 1.21356 8.72629 1.37485L6.46347 6.38386L1.23432 6.79937C1.05863 6.81329 0.89067 6.87753 0.750533 6.98441C0.610395 7.09128 0.504015 7.23627 0.44412 7.40202C0.384224 7.56777 0.37335 7.74727 0.412798 7.91904C0.452245 8.09081 0.540344 8.24758 0.666555 8.37059L4.53178 12.1377ZM7.14865 8.16972C7.31237 8.15682 7.46961 8.10012 7.60387 8.00555C7.73814 7.91098 7.8445 7.78203 7.91179 7.63222L9.56189 3.98071L11.212 7.63222C11.2793 7.78203 11.3856 7.91098 11.5199 8.00555C11.6542 8.10012 11.8114 8.15682 11.9751 8.16972L15.6184 8.45865L12.6181 11.159C12.3576 11.3938 12.254 11.7552 12.3494 12.0927L13.4987 16.1148L10.0719 13.83C9.92146 13.729 9.74442 13.6751 9.56327 13.6751C9.38212 13.6751 9.20507 13.729 9.05466 13.83L5.47378 16.2175L6.43688 12.0478C6.47219 11.8944 6.46745 11.7346 6.42311 11.5836C6.37878 11.4326 6.29634 11.2955 6.18372 11.1856L3.39716 8.46874L7.14865 8.16972Z" fill="#F3CD03"/>
</svg>
