<svg width="19" height="20" viewBox="0 0 19 20" fill="none" xmlns="http://www.w3.org/2000/svg">
<path d="M18.6308 7.41927C18.5732 7.24946 18.467 7.10025 18.3256 6.99006C18.1841 6.87987 18.0134 6.81353 17.8347 6.79922L12.6055 6.38371L10.3427 1.3747C10.2706 1.21337 10.1534 1.07634 10.0052 0.980156C9.85696 0.883971 9.68407 0.832739 9.50738 0.832642C9.33069 0.832545 9.15774 0.883587 9.00941 0.979609C8.86109 1.07563 8.74372 1.21253 8.67148 1.37378L6.40867 6.38371L1.17951 6.79922C1.00382 6.81314 0.835861 6.87738 0.695723 6.98425C0.555585 7.09113 0.449205 7.23612 0.38931 7.40187C0.329415 7.56762 0.318541 7.74712 0.357988 7.91889C0.397436 8.09066 0.485535 8.24743 0.611746 8.37044L4.47605 12.1375L3.10937 18.0555C3.06788 18.2347 3.08118 18.4221 3.14755 18.5936C3.21392 18.7651 3.3303 18.9127 3.48159 19.0172C3.63288 19.1217 3.81208 19.1783 3.99596 19.1797C4.17983 19.1811 4.35988 19.1272 4.51274 19.025L9.50708 15.6955L14.5014 19.025C14.6577 19.1288 14.8419 19.1822 15.0294 19.1781C15.2169 19.1739 15.3986 19.1125 15.5502 19.002C15.7017 18.8916 15.8158 18.7373 15.8771 18.5601C15.9383 18.3828 15.9438 18.1911 15.8929 18.0106L14.2152 12.1403L18.3758 8.39612C18.6482 8.15031 18.7482 7.7669 18.6308 7.41927Z" fill="#F3CD03"/>
</svg>
