<svg width="37" height="52" viewBox="0 0 37 52" fill="none" xmlns="http://www.w3.org/2000/svg">
<path fill-rule="evenodd" clip-rule="evenodd" d="M0 7.42871C0 5.45849 0.77964 3.56897 2.16741 2.17582C3.55518 0.782665 5.4374 0 7.4 0H29.6C31.5626 0 33.4448 0.782665 34.8326 2.17582C36.2204 3.56897 37 5.45849 37 7.42871V50.1438C36.9998 50.4797 36.9089 50.8093 36.7369 51.0975C36.5649 51.3856 36.3182 51.6215 36.0232 51.7801C35.7282 51.9387 35.3959 52.0139 35.0616 51.9979C34.7273 51.9818 34.4037 51.8751 34.1251 51.689L18.5 41.233L2.8749 51.689C2.59631 51.8751 2.27265 51.9818 1.9384 51.9979C1.60414 52.0139 1.27181 51.9387 0.976798 51.7801C0.681784 51.6215 0.435135 51.3856 0.263122 51.0975C0.0911089 50.8093 0.000172866 50.4797 0 50.1438V7.42871ZM7.4 3.71435C6.4187 3.71435 5.47759 4.10569 4.7837 4.80226C4.08982 5.49884 3.7 6.4436 3.7 7.42871V46.6746L17.4751 37.4555C17.7787 37.2527 18.1353 37.1445 18.5 37.1445C18.8647 37.1445 19.2213 37.2527 19.5249 37.4555L33.3 46.6746V7.42871C33.3 6.4436 32.9102 5.49884 32.2163 4.80226C31.5224 4.10569 30.5813 3.71435 29.6 3.71435H7.4Z" fill="#23A6F0"/>
</svg>
