<svg width="36" height="51" viewBox="0 0 36 51" fill="none" xmlns="http://www.w3.org/2000/svg">
<path fill-rule="evenodd" clip-rule="evenodd" d="M0 3.64292H28.6017C29.5828 3.64292 30.5237 4.02673 31.2174 4.70991C31.9111 5.39309 32.3009 6.31968 32.3009 7.28585V50.1558L33.1258 50.6949C33.4043 50.8775 33.7279 50.9822 34.0621 50.9979C34.3962 51.0137 34.7285 50.9398 35.0234 50.7843C35.3184 50.6288 35.565 50.3974 35.7369 50.1148C35.9089 49.8322 35.9998 49.509 36 49.1795V7.28585C36 5.35352 35.2205 3.50034 33.8331 2.13398C32.4456 0.767614 30.5639 0 28.6017 0L6.4069 0C5.10827 3.24892e-05 3.83252 0.3367 2.70787 0.976165C1.58323 1.61563 0.649318 2.53536 0 3.64292V3.64292Z" fill="#23A6F0"/>
</svg>